<svg width="73" height="73" viewBox="0 0 73 73" fill="none" xmlns="http://www.w3.org/2000/svg">
<g clip-path="url(#clip0)">
<path d="M36.501 17.3884C37.0915 17.3884 37.5703 16.9096 37.5703 16.3191V14.7496C37.5703 14.159 37.0915 13.6802 36.501 13.6802C35.9104 13.6802 35.4316 14.159 35.4316 14.7496V16.3191C35.4316 16.9096 35.9104 17.3884 36.501 17.3884Z" fill="white"/>
<path d="M52.5779 20.3881C52.1603 19.9705 51.4832 19.9703 51.0657 20.3881L49.9559 21.4978C49.5382 21.9154 49.5382 22.5925 49.9558 23.0101C50.1646 23.2188 50.4383 23.3233 50.712 23.3233C50.9856 23.3233 51.2594 23.219 51.4681 23.0102L52.5779 21.9004C52.9954 21.4828 52.9954 20.8057 52.5779 20.3881Z" fill="white"/>
<path d="M56.5635 35.4308C55.9728 35.4308 55.4941 35.9096 55.4941 36.5002C55.4941 37.0907 55.9728 37.5695 56.5635 37.5695H58.133C58.7237 37.5695 59.2023 37.0909 59.2023 36.5002C59.2023 35.9095 58.7237 35.4308 58.133 35.4308H56.5635Z" fill="white"/>
<path d="M51.3861 49.9559C50.9683 49.5385 50.2914 49.5385 49.8738 49.9559C49.4561 50.3737 49.4561 51.0506 49.8738 51.4683L50.9834 52.5779C51.1923 52.7867 51.4661 52.891 51.7397 52.891C52.0133 52.891 52.287 52.7867 52.4959 52.5779C52.9135 52.1602 52.9135 51.4832 52.4959 51.0656L51.3861 49.9559Z" fill="white"/>
<path d="M35.3145 56.5649V58.1344C35.3145 58.7251 35.7932 59.2037 36.3838 59.2037C36.9744 59.2037 37.4531 58.7251 37.4531 58.1344V56.5649C37.4531 55.9742 36.9745 55.4955 36.3838 55.4955C35.7931 55.4955 35.3145 55.9742 35.3145 56.5649Z" fill="white"/>
<path d="M21.4152 49.8735L20.3054 50.9832C19.8878 51.4008 19.8878 52.0779 20.3054 52.4954C20.5141 52.7043 20.7879 52.8086 21.0615 52.8086C21.3351 52.8086 21.6088 52.7043 21.8176 52.4955L22.9274 51.3858C23.345 50.9682 23.345 50.2911 22.9274 49.8737C22.5099 49.456 21.8328 49.4562 21.4152 49.8735Z" fill="white"/>
<path d="M14.749 35.3143C14.1585 35.3143 13.6797 35.7931 13.6797 36.3837C13.6797 36.9744 14.1585 37.453 14.749 37.453H16.3185C16.9091 37.453 17.3879 36.9744 17.3879 36.3837C17.3879 35.7931 16.9091 35.3143 16.3185 35.3143H14.749Z" fill="white"/>
<path d="M23.0095 21.4155L21.8997 20.3057C21.4819 19.8881 20.8051 19.8882 20.3874 20.3057C19.9698 20.7233 19.9699 21.4004 20.3874 21.818L21.4972 22.9277C21.7061 23.1366 21.9797 23.241 22.2533 23.241C22.5269 23.241 22.8007 23.1366 23.0095 22.9277C23.4271 22.5101 23.427 21.8331 23.0095 21.4155Z" fill="white"/>
<path d="M39.3661 39.1759L46.9829 43.0925C47.5113 43.3643 48.1544 43.1527 48.423 42.6305C48.6932 42.1053 48.4861 41.4607 47.961 41.1905L40.3468 37.2752C40.3973 37.0244 40.4241 36.7652 40.4241 36.4998C40.4241 34.7072 39.2151 33.1926 37.5701 32.7258V21.8261C37.5701 21.2356 37.0913 20.7568 36.5007 20.7568C35.9102 20.7568 35.4314 21.2356 35.4314 21.8261V32.7258C34.1265 33.0961 33.097 34.1256 32.7267 35.4305H27.4189C26.8284 35.4305 26.3496 35.9093 26.3496 36.4998C26.3496 37.0904 26.8284 37.5692 27.4189 37.5692H32.7267C33.1935 39.2142 34.7081 40.4233 36.5007 40.4233C37.6305 40.4234 38.6497 39.9428 39.3661 39.1759ZM36.5006 38.2848C35.5165 38.2848 34.7158 37.4842 34.7158 36.5C34.7158 35.5159 35.5164 34.7152 36.5006 34.7152C37.4847 34.7152 38.2853 35.5158 38.2853 36.5C38.2854 37.4842 37.4847 38.2848 36.5006 38.2848Z" fill="white"/>
<path d="M64.1101 35.4287C64.699 35.3836 65.1398 34.8698 65.0948 34.2808C64.5445 27.0958 61.3261 20.4262 56.0322 15.5002C50.7106 10.5485 43.7743 7.82141 36.5009 7.82141C20.6875 7.82141 7.82227 20.6865 7.82227 36.5C7.82227 52.3135 20.6875 65.1786 36.5009 65.1786C51.4567 65.1786 63.9506 53.6574 65.0946 38.7195C65.1395 38.1307 64.699 37.6168 64.11 37.5716C63.5235 37.5276 63.0073 37.9673 62.9621 38.5563C61.906 52.349 50.3699 63.0399 36.5009 63.0399C21.8666 63.0399 9.96094 51.1342 9.96094 36.5C9.96094 21.8658 21.8666 9.96008 36.5009 9.96008C43.2317 9.96008 49.6507 12.4837 54.5753 17.066C59.4746 21.6248 62.4532 27.7965 62.9621 34.4442C63.0073 35.0327 63.5191 35.4747 64.1101 35.4287Z" fill="white"/>
<path d="M62.3102 10.6907C55.4162 3.79657 46.2503 0 36.5007 0C29.494 0 22.6873 1.99096 16.8162 5.75787C16.3192 6.07682 16.1747 6.73824 16.4937 7.23541C16.8126 7.7323 17.4739 7.87673 17.9712 7.55792C23.4968 4.01258 29.9043 2.13867 36.5007 2.13867C45.679 2.13867 54.3078 5.71282 60.7978 12.2028C67.2879 18.6928 70.862 27.3217 70.862 36.5C70.862 55.4904 55.4938 70.8613 36.5007 70.8613C33.1069 70.8613 29.7503 70.3657 26.5242 69.3886C25.9589 69.2173 25.3619 69.5366 25.1908 70.1021C25.0196 70.6673 25.339 71.2641 25.9041 71.4355C29.3316 72.4736 32.8967 73 36.5007 73C56.6732 73 73.0007 56.6752 73.0007 36.5C73.0007 26.7505 69.204 17.5846 62.3102 10.6907Z" fill="white"/>
<path d="M22.6351 67.9469C10.1841 62.4489 2.13867 50.1052 2.13867 36.5C2.13867 26.219 6.68848 16.5615 14.6214 10.0034C15.0765 9.62717 15.1405 8.9532 14.7641 8.49795C14.388 8.04299 13.714 7.97897 13.2586 8.35509C4.83268 15.3207 0 25.5791 0 36.5C0 50.9517 8.5457 64.0634 21.7711 69.9035C21.9115 69.9655 22.0583 69.9949 22.2025 69.9949C22.6132 69.9949 23.0047 69.7571 23.1813 69.3571C23.4199 68.8169 23.1754 68.1856 22.6351 67.9469Z" fill="white"/>
</g>
<defs>
<clipPath id="clip0">
<rect width="73" height="73" fill="white"/>
</clipPath>
</defs>
</svg>
