<svg width="59" height="61" viewBox="0 0 59 61" fill="none" xmlns="http://www.w3.org/2000/svg">
<path d="M52.7607 22.2718H36.6755V12.3732C36.6755 5.56795 28.5092 0 18.3632 0C8.21711 0 0.0507812 5.56795 0.0507812 12.3732V37.6146C0.0507812 43.1826 5.61873 48.1318 13.5376 49.6166V59.7627C13.5376 60.5051 14.0325 61 14.7749 61H52.7607C56.2252 61 58.9473 58.2779 58.9473 54.8134V28.4584C58.9473 24.9939 56.2252 22.2718 52.7607 22.2718ZM18.3632 2.47465C27.1481 2.47465 34.2009 6.92901 34.2009 12.3732C34.2009 17.8174 27.1481 22.2718 18.3632 22.2718C9.57817 22.2718 2.52543 17.8174 2.52543 12.3732C2.52543 6.92901 9.57817 2.47465 18.3632 2.47465ZM34.2009 18.5598V22.2718H29.2516C31.2313 21.2819 32.9636 20.0446 34.2009 18.5598ZM13.5376 33.4077V47.0183C7.10352 45.6572 2.52543 41.9452 2.52543 37.6146V18.5598C5.74247 22.2718 11.5579 24.7465 18.3632 24.7465H52.7607C54.8642 24.7465 56.4727 26.355 56.4727 28.4584C56.4727 30.5619 54.8642 32.1704 52.7607 32.1704H14.7749C14.0325 32.1704 13.5376 32.6653 13.5376 33.4077ZM56.7202 54.6897H56.4727C56.4727 56.7931 54.8642 58.4016 52.7607 58.4016H51.2759V52.7099C51.2759 51.9675 50.781 51.4726 50.0386 51.4726C49.2962 51.4726 48.8013 51.9675 48.8013 52.7099V58.4016H44.2232V52.7099C44.2232 51.9675 43.7283 51.4726 42.9859 51.4726C42.2435 51.4726 41.7486 51.9675 41.7486 52.7099V58.4016H37.1705V52.7099C37.1705 51.9675 36.6755 51.4726 35.9331 51.4726C35.1907 51.4726 34.6958 51.9675 34.6958 52.7099V58.4016H30.1177V52.7099C30.1177 51.9675 29.6228 51.4726 28.8804 51.4726C28.138 51.4726 27.6431 51.9675 27.6431 52.7099V58.4016H23.065V52.7099C23.065 51.9675 22.5701 51.4726 21.8277 51.4726C21.0853 51.4726 20.5903 51.9675 20.5903 52.7099V58.4016H16.2597V48.8742C16.2597 48.7505 16.3834 48.6268 16.3834 48.6268C16.3834 48.3793 16.3834 48.2556 16.2597 48.0081V34.645H53.0082C54.3693 34.645 55.7303 34.1501 56.7202 33.4077V54.6897Z" fill="white"/>
</svg>
