<svg width="67" height="68" viewBox="0 0 67 68" fill="none" xmlns="http://www.w3.org/2000/svg">
<g clip-path="url(#clip0)">
<path d="M40.1276 23.7735C40.8513 23.7735 41.4387 23.1784 41.4387 22.4454C41.4387 21.7123 40.8513 21.1172 40.1276 21.1172C39.4023 21.1172 38.8164 21.7123 38.8164 22.4454C38.8164 23.1784 39.4023 23.7735 40.1276 23.7735Z" fill="white"/>
<path d="M27.0162 23.7735C27.7399 23.7735 28.3274 23.1784 28.3274 22.4454C28.3274 21.7123 27.7399 21.1172 27.0162 21.1172C26.291 21.1172 25.7051 21.7123 25.7051 22.4454C25.7051 23.1784 26.291 23.7735 27.0162 23.7735Z" fill="white"/>
<path d="M30.0669 32.9023C31.1675 33.4278 32.3471 33.6945 33.5716 33.6945C34.7696 33.6945 35.9261 33.4387 37.0093 32.9344C37.6675 32.6278 37.9553 31.8392 37.6531 31.1726C37.3504 30.5064 36.5719 30.2144 35.9138 30.521C35.1768 30.8639 34.3886 31.0382 33.5716 31.0382C32.7363 31.0382 31.9332 30.8572 31.1849 30.4997C30.5299 30.1869 29.7483 30.4712 29.44 31.1347C29.1311 31.7983 29.4118 32.5894 30.0669 32.9023Z" fill="white"/>
<path d="M62.488 53.7586C62.488 46.4554 54.2769 40.7279 47.2387 40.4565L43.6478 37.1886C48.0212 33.9565 50.6758 28.7623 50.6758 23.2422V14.4766C50.6758 6.42119 44.1851 -0.132812 36.207 -0.132812H30.9624C22.9951 -0.132812 16.5858 6.39784 16.5858 14.4766V23.2422C16.5858 28.7529 19.205 33.9373 23.5216 37.1637L19.9036 40.4565C12.8808 40.7274 4.6543 46.4404 4.6543 53.7586V66.5392C4.6543 67.2728 5.24124 67.8673 5.96545 67.8673H61.1768C61.9011 67.8673 62.488 67.2728 62.488 66.5392V53.7586ZM30.6669 59.1017H36.4682L37.8429 65.2111H29.2523L30.6669 59.1017ZM36.5809 56.4454H30.5839L29.578 53.2709L33.5719 51.2481L37.6513 53.315L36.5809 56.4454ZM33.5714 47.2575L29.0151 39.8744C30.4948 40.291 32.0323 40.5074 33.5847 40.5074C35.1223 40.5074 36.6485 40.2952 38.1205 39.8853L33.5714 47.2575ZM35.448 49.2289L41.7431 39.0257L45.1382 42.1157L40.8181 51.9495L35.448 49.2289ZM30.9624 2.52344H36.207C42.7392 2.52344 48.0535 7.88524 48.0535 14.4766V15.5744L45.5915 11.9832C45.3687 11.658 45.0138 11.4504 44.624 11.4172C44.2338 11.384 43.8507 11.5288 43.5772 11.812C40.9118 14.5731 37.826 15.8047 33.5719 15.8047C29.3183 15.8047 26.232 14.5731 23.5646 11.812C23.2901 11.5272 22.9034 11.383 22.5126 11.4177C22.1213 11.4525 21.7659 11.6631 21.5446 11.9921L19.2081 15.4602V14.4766C19.2081 7.88524 24.4809 2.52344 30.9624 2.52344ZM19.2081 23.2422V20.1725L22.8496 14.7671C25.767 17.2807 29.2144 18.461 33.5719 18.461C37.9341 18.461 41.384 17.2781 44.3019 14.7593L48.0535 20.2316V23.2422C48.0535 31.196 41.6355 37.8516 33.5847 37.8516C25.56 37.8516 19.2081 31.2167 19.2081 23.2422ZM25.3992 39.0262L31.6953 49.2289L26.3242 51.9495L22.004 42.1157L25.3992 39.0262ZM7.27661 53.7586C7.27661 48.2873 13.8426 43.5631 19.5805 43.1335L24.486 54.2986C24.6315 54.6296 24.9045 54.8864 25.2415 55.0089C25.5785 55.1313 25.9498 55.1085 26.2704 54.9466L27.2046 54.473L28.2684 57.8286L26.5588 65.2111H7.27661V53.7586ZM59.8657 65.2111H40.5323L38.8759 57.8488L40.0165 54.5129L40.8719 54.9466C41.1945 55.11 41.5669 55.1303 41.9008 55.0089C42.2378 54.8864 42.5108 54.6296 42.6563 54.2986L47.5618 43.1335C53.2997 43.5636 59.8657 48.2873 59.8657 53.7586V65.2111Z" fill="white"/>
<path d="M50.6183 59.1017H45.3737C44.6494 59.1017 44.0625 59.6962 44.0625 60.4298C44.0625 61.1634 44.6494 61.7579 45.3737 61.7579H50.6183C51.3425 61.7579 51.9294 61.1634 51.9294 60.4298C51.9294 59.6962 51.3425 59.1017 50.6183 59.1017Z" fill="white"/>
<path d="M55.7897 59.1017C56.5134 59.1017 57.1008 59.6967 57.1008 60.4298C57.1008 61.1629 56.5134 61.7579 55.7897 61.7579C55.066 61.7579 54.4785 61.1629 54.4785 60.4298C54.4785 59.6967 55.066 59.1017 55.7897 59.1017Z" fill="white"/>
</g>
<defs>
<clipPath id="clip0">
<rect width="67" height="68" fill="white"/>
</clipPath>
</defs>
</svg>
