<svg width="78" height="74" viewBox="0 0 78 74" fill="none" xmlns="http://www.w3.org/2000/svg">
<g clip-path="url(#clip0)">
<path d="M77.6193 15.1618L62.0185 0.360992C61.5102 -0.121307 60.6886 -0.121307 60.1802 0.360992L0.381277 57.0933C-0.127092 57.5756 -0.127092 58.3551 0.381277 58.8374L15.982 73.638C16.2251 73.8699 16.5566 73.9994 16.9011 73.9994C17.2455 73.9994 17.5758 73.8699 17.8201 73.638L77.6189 16.9058C77.8633 16.6752 77.9998 16.3607 77.9998 16.0339C78.0001 15.707 77.8636 15.3936 77.6193 15.1618ZM16.9012 71.022L3.13884 57.9654L61.0993 2.97714L74.8617 16.0338L16.9012 71.022Z" fill="white"/>
<path d="M62.406 11.0995C60.2557 11.0995 58.5059 12.7596 58.5059 14.7997C58.5059 16.8397 60.2557 18.4998 62.406 18.4998C64.5563 18.4998 66.3061 16.8397 66.3061 14.7997C66.3061 12.7598 64.5563 11.0995 62.406 11.0995ZM62.406 16.0331C61.6883 16.0331 61.1059 15.4793 61.1059 14.7997C61.1059 14.1201 61.6883 13.5663 62.406 13.5663C63.1237 13.5663 63.7061 14.1201 63.7061 14.7997C63.7061 15.4794 63.1237 16.0331 62.406 16.0331Z" fill="white"/>
<path d="M50.3229 11.4615L48.4844 13.2057L52.3848 16.9061L54.2232 15.1619L50.3229 11.4615Z" fill="white"/>
<path d="M46.4225 15.162L44.584 16.9062L49.7842 21.8398L51.6227 20.0956L46.4225 15.162Z" fill="white"/>
<path d="M42.5221 18.8609L40.6836 20.6051L44.584 24.3055L46.4225 22.5613L42.5221 18.8609Z" fill="white"/>
<path d="M38.6217 22.5602L36.7832 24.3044L41.9835 29.238L43.822 27.4938L38.6217 22.5602Z" fill="white"/>
<path d="M34.7213 26.2602L32.8828 28.0044L36.7832 31.7048L38.6217 29.9606L34.7213 26.2602Z" fill="white"/>
<path d="M30.8209 29.9594L28.9824 31.7036L34.1827 36.6372L36.0212 34.893L30.8209 29.9594Z" fill="white"/>
<path d="M26.9203 33.6581L25.082 35.4026L28.9821 39.1016L30.8203 37.3572L26.9203 33.6581Z" fill="white"/>
<path d="M23.0201 37.3612L21.1816 39.1054L26.3819 44.039L28.2204 42.2948L23.0201 37.3612Z" fill="white"/>
<path d="M19.1197 41.0609L17.2812 42.8051L21.1816 46.5055L23.0201 44.7613L19.1197 41.0609Z" fill="white"/>
<path d="M15.2193 44.7615L13.3809 46.5057L18.5811 51.4393L20.4196 49.6951L15.2193 44.7615Z" fill="white"/>
<path d="M11.3229 48.4627L9.48438 50.2069L13.3848 53.9073L15.2233 52.1631L11.3229 48.4627Z" fill="white"/>
<path d="M7.41857 52.1622L5.58008 53.9064L10.7804 58.84L12.6188 57.0958L7.41857 52.1622Z" fill="white"/>
</g>
<defs>
<clipPath id="clip0">
<rect width="78" height="74" fill="white"/>
</clipPath>
</defs>
</svg>
