<svg width="81" height="81" viewBox="0 0 81 81" fill="none" xmlns="http://www.w3.org/2000/svg">
<g clip-path="url(#clip0)">
<path d="M47.9398 9.74183C47.089 9.53696 46.2358 10.0598 46.0311 10.9091C45.8264 11.7584 46.3489 12.6131 47.1983 12.8178C60.0209 15.9089 68.9763 27.2922 68.9763 40.4999C68.9763 56.2018 56.2019 68.9763 40.4999 68.9763C24.7978 68.9763 12.0234 56.2018 12.0234 40.4999C12.0234 27.2927 20.9783 15.9094 33.8003 12.8179C34.6497 12.6131 35.1722 11.7584 34.9675 10.9092C34.7627 10.0598 33.9077 9.5376 33.0588 9.74199C26.2751 11.3776 20.1291 15.299 15.753 20.7837C11.2432 26.4362 8.85938 33.2539 8.85938 40.4999C8.85938 57.9465 23.0533 72.1404 40.4999 72.1404C57.9464 72.1404 72.1404 57.9466 72.1404 40.4999C72.1404 33.2537 69.7566 26.4358 65.2464 20.7833C60.8702 15.2987 54.7239 11.3773 47.9398 9.74183Z" fill="white"/>
<path d="M80.0467 36.6948L78.1959 33.2417L78.5046 28.9727C78.8014 26.2365 77.7099 23.566 75.5812 21.8245L72.5089 19.3088L71.3004 15.6682C70.6236 12.8846 68.5095 10.6473 65.7666 9.81884L61.9743 8.67314L59.07 5.31608C57.3516 3.29473 54.7506 2.24331 52.112 2.50261L48.1759 2.89479L44.3067 0.953803C41.9223 -0.317354 39.0794 -0.318462 36.6947 0.953645L33.2417 2.8043L28.973 2.49549C26.2356 2.1987 23.5661 3.2903 21.8247 5.41891L19.3089 8.4912L15.6685 9.69971C12.8847 10.3765 10.6474 12.4906 9.81892 15.2333L8.67337 19.0256L5.31632 21.93C3.29512 23.6484 2.24307 26.249 2.50268 28.8881L2.89487 32.8242L0.953882 36.6933C-0.317433 39.0779 -0.318382 41.9207 0.953566 44.3056L2.80438 47.7585L2.49557 52.0274C2.19894 54.7637 3.29037 57.434 5.41899 59.1756L8.49128 61.6914L9.69979 65.3319C10.3764 68.1155 12.4905 70.3528 15.2336 71.1813L19.0257 72.3269L21.9301 75.6841C23.6487 77.7053 26.2486 78.7573 28.8882 78.4976L32.8241 78.1054L36.6929 80.046C37.8856 80.682 39.193 81.0002 40.5004 81.0002C41.8068 81.0002 43.1133 80.6825 44.3053 80.0467L47.7584 78.196L52.0272 78.5048C54.7633 78.801 57.4338 77.71 59.1756 75.5814L61.6913 72.5091L65.332 71.3008C68.1154 70.624 70.3526 68.5099 71.1811 65.767L72.3268 61.9749L75.684 59.0704C77.7052 57.352 78.7572 54.7515 78.4976 52.1122L78.1053 48.1765L80.0461 44.3073C81.3174 41.9226 81.3187 39.0797 80.0467 36.6948ZM77.2474 42.8308C77.2404 42.8438 77.2336 42.8567 77.2271 42.8697L75.0714 47.1673C74.9371 47.435 74.8816 47.7354 74.9112 48.0336L75.3489 52.4237C75.5068 54.029 74.8659 55.6126 73.6242 56.6684L69.9099 59.8819C69.6834 60.0779 69.5173 60.334 69.4307 60.6207L68.1523 64.8518C67.6427 66.5389 66.2583 67.836 64.5394 68.2367C64.4924 68.2476 64.4459 68.2607 64.4002 68.2759L60.2594 69.6502C59.9751 69.7447 59.7234 69.9177 59.5337 70.1495L56.7272 73.5771C55.6613 74.8801 54.0237 75.5455 52.348 75.3569C52.3271 75.3545 52.3061 75.3526 52.2854 75.3511L47.5295 75.0071C47.23 74.9856 46.932 75.0492 46.6681 75.1906L42.8136 77.2564C41.3601 78.0316 39.624 78.0285 38.1693 77.2474C38.1563 77.2406 38.1433 77.2338 38.1304 77.2273L33.833 75.0717C33.6121 74.9609 33.3691 74.9037 33.1236 74.9037C33.0714 74.9037 33.019 74.9062 32.9666 74.9114L28.5765 75.3488C26.9714 75.5074 25.3876 74.8659 24.3318 73.6243L21.1184 69.91C20.9225 69.6835 20.6662 69.5172 20.3794 69.4306L16.1483 68.1525C14.4611 67.643 13.1641 66.2585 12.7634 64.5395C12.7525 64.4925 12.7393 64.4462 12.7241 64.4003L11.3498 60.2593C11.2556 59.975 11.0825 59.7235 10.8507 59.5338L7.42326 56.7271C6.1203 55.6612 5.4549 54.0241 5.64348 52.3481C5.64585 52.3272 5.64775 52.3063 5.64933 52.2853L5.99326 47.5293C6.01494 47.2306 5.95118 46.9319 5.80975 46.6678L3.74378 42.8137C2.96859 41.3601 2.97191 39.624 3.75264 38.1694C3.7596 38.1565 3.76625 38.1436 3.77273 38.1306L5.9284 33.833C6.06272 33.5653 6.11824 33.2649 6.0885 32.9669L5.65107 28.5764C5.49319 26.9712 6.13406 25.3875 7.3758 24.3317L11.0901 21.1183C11.3166 20.9223 11.4827 20.6662 11.5694 20.3795L12.8477 16.1482C13.3573 14.4611 14.7417 13.1642 16.4607 12.7633C16.5077 12.7524 16.5541 12.7393 16.6 12.7241L20.7406 11.3496C21.0249 11.2553 21.2764 11.0822 21.4661 10.8505L24.2729 7.42286C25.3389 6.12006 26.9765 5.45498 28.652 5.64324C28.6729 5.64561 28.6937 5.64751 28.7146 5.6491L33.4705 5.99303C33.7684 6.01423 34.0679 5.95095 34.3319 5.80951L38.1862 3.7437C39.6396 2.96851 41.3759 2.97168 42.8304 3.75256C42.8432 3.75937 42.8562 3.76617 42.8693 3.77266L47.1669 5.92832C47.4346 6.06264 47.735 6.11832 48.033 6.08842L52.4233 5.65099C54.0284 5.49279 55.6122 6.13399 56.6681 7.37572L59.8815 11.09C60.0773 11.3165 60.3336 11.4827 60.6204 11.5693L64.8516 12.8476C66.5386 13.3572 67.8356 14.7418 68.2365 16.4607C68.2474 16.5076 68.2605 16.554 68.2757 16.5999L69.6502 20.7405C69.7446 21.0248 69.9175 21.2763 70.1493 21.466L73.5769 24.2727C74.8799 25.3387 75.5451 26.9756 75.3565 28.6517C75.3541 28.6726 75.3522 28.6935 75.3508 28.7145L75.0069 33.4706C74.9852 33.7693 75.049 34.068 75.1902 34.332L77.2562 38.1863C78.0316 39.6402 78.0282 41.3763 77.2474 42.8308Z" fill="white"/>
<path d="M33.635 31.8804C33.3813 31.3456 32.8378 30.975 32.2066 30.975H23.8477C22.9739 30.975 22.2656 31.6833 22.2656 32.557V56.5035C22.2656 57.3772 22.9739 58.0855 23.8477 58.0855H32.2066C32.8623 58.0855 33.4248 57.6867 33.6646 57.1183C34.8706 57.2875 36.1129 57.6305 37.4064 57.9887C39.351 58.5271 41.3616 59.0838 43.4507 59.0838H52.5836C55.4068 59.0838 57.6946 57.587 58.7035 55.0797C59.1948 53.858 59.2809 52.5902 58.9938 51.5288C59.519 51.0566 59.9629 50.4687 60.2986 49.7823C60.979 48.3913 61.1149 46.8272 60.7292 45.5098C61.4481 44.8153 61.9844 43.8982 62.2648 42.8169C62.5269 41.806 62.5223 40.8085 62.2891 39.9443C63.7161 39.1049 64.6772 37.5798 64.6772 35.8614C64.6772 34.5137 64.1524 33.2718 63.1994 32.3646C62.2844 31.4936 61.0656 31.0137 59.7677 31.0137L46.8946 31.0141C45.9166 29.7872 45.6122 28.1223 46.1691 26.7821C47.3119 24.0316 47.2411 21.7034 45.9398 19.2332C44.9739 17.3998 42.3765 15.5744 40.1934 15.8861C38.8739 16.0747 37.9191 17.0073 37.6391 18.3811C37.5567 18.7853 37.5341 19.222 37.508 19.7276C37.4434 20.9748 37.3548 22.6831 36.2781 24.7459C35.5483 26.1443 35.3048 27.5825 35.09 28.8514C34.7823 30.6692 34.6331 31.5448 33.635 31.8804ZM25.4297 34.139H30.6246V54.9215H25.4297V34.139ZM38.2097 29.3795C38.3941 28.2909 38.5845 27.1651 39.0832 26.2101C40.479 23.5358 40.5972 21.2544 40.6679 19.8913C40.6867 19.5282 40.7044 19.1853 40.7396 19.0128C40.7397 19.0117 40.74 19.0104 40.7404 19.0093C41.2892 19.0169 42.6397 19.7578 43.1404 20.7083C44.0071 22.3529 44.0359 23.6703 43.2474 25.5684C42.5363 27.2798 42.5897 29.2658 43.2931 31.0315C42.5235 31.1386 41.9305 31.7975 41.9305 32.5966C41.9305 33.4701 42.6389 34.1786 43.5125 34.1786L59.7677 34.1781C60.2497 34.1781 60.6938 34.348 61.0178 34.6565C61.2439 34.8715 61.5131 35.2553 61.5131 35.8615C61.5131 36.7101 60.7353 37.4439 59.8144 37.464L55.7424 37.5526C54.8689 37.5716 54.1762 38.295 54.1952 39.1686C54.214 40.0305 54.9183 40.7163 55.7762 40.7163C55.7878 40.7163 55.7995 40.7163 55.8114 40.716L59.2026 40.6423C59.3132 40.9557 59.3708 41.5535 59.1379 42.2384C58.9397 42.8209 58.4076 43.7979 57.0692 43.7979C56.1956 43.7979 55.4872 44.5062 55.4872 45.3799C55.4872 46.2537 56.1956 46.962 57.0692 46.962C57.3091 46.962 57.5445 46.9471 57.7748 46.9178C57.7944 47.3656 57.7024 47.89 57.4567 48.3921C57.1662 48.9857 56.5921 49.6935 55.5065 49.6935C54.6329 49.6935 53.9245 50.4018 53.9245 51.2755C53.9245 52.1493 54.6329 52.8576 55.5065 52.8576C55.6702 52.8576 55.8322 52.8503 55.9922 52.8359C55.9881 53.1395 55.9264 53.519 55.7538 53.9341C55.5057 54.5312 54.7 55.9197 52.5839 55.9197H43.451C41.7919 55.9197 40.072 55.4435 38.251 54.9393C36.8021 54.5381 35.3164 54.1271 33.7889 53.9436V35.0822C37.3507 34.4368 37.8418 31.5534 38.2097 29.3795Z" fill="white"/>
<path d="M40.5005 12.0236C41.3742 12.0236 42.0825 11.3153 42.0825 10.4416C42.0825 9.56783 41.3742 8.85956 40.5005 8.85956H40.4994C39.6256 8.85956 38.918 9.56783 38.918 10.4416C38.918 11.3153 39.6267 12.0236 40.5005 12.0236Z" fill="white"/>
</g>
<defs>
<clipPath id="clip0">
<rect width="81" height="81" fill="white"/>
</clipPath>
</defs>
</svg>
