<svg width="45" height="37" viewBox="0 0 45 37" fill="none" xmlns="http://www.w3.org/2000/svg">
<path d="M43.5029 6.30877C42.6046 5.36771 41.3641 4.81162 39.9525 4.81162H32.8517V4.72607C32.8517 3.65668 32.424 2.63006 31.6968 1.94565C30.9696 1.21847 29.9857 0.79071 28.9163 0.79071H16.0837C14.9715 0.79071 13.9876 1.21847 13.2605 1.94565C12.5333 2.67284 12.1055 3.65668 12.1055 4.72607V4.81162H5.04753C3.63593 4.81162 2.39544 5.36771 1.49715 6.30877C0.598859 7.20706 0 8.49033 0 9.85915V31.1614C0 32.573 0.556084 33.8135 1.49715 34.7118C2.39544 35.6101 3.67871 36.209 5.04753 36.209H39.9525C41.3641 36.209 42.6046 35.6529 43.5029 34.7118C44.4011 33.8135 45 32.5303 45 31.1614V9.85915C45 8.44756 44.4439 7.20706 43.5029 6.30877ZM42.7757 31.1614H42.7329C42.7329 31.9314 42.4335 32.6158 41.9202 33.1291C41.4068 33.6424 40.7224 33.9419 39.9525 33.9419H5.04753C4.27757 33.9419 3.59316 33.6424 3.07985 33.1291C2.56654 32.6158 2.26711 31.9314 2.26711 31.1614V9.85915C2.26711 9.08919 2.56654 8.40478 3.07985 7.89147C3.59316 7.37816 4.27757 7.07873 5.04753 7.07873H13.3032C13.9449 7.07873 14.4582 6.56543 14.4582 5.92379V4.6833C14.4582 4.21276 14.6293 3.78501 14.9287 3.48558C15.2281 3.18615 15.6559 3.01505 16.1264 3.01505H28.9163C29.3869 3.01505 29.8146 3.18615 30.1141 3.48558C30.4135 3.78501 30.5846 4.21276 30.5846 4.6833V5.92379C30.5846 6.56543 31.0979 7.07873 31.7395 7.07873H39.9952C40.7652 7.07873 41.4496 7.37816 41.9629 7.89147C42.4762 8.40478 42.7757 9.08919 42.7757 9.85915V31.1614Z" fill="#FFFDFD"/>
<path d="M22.4994 9.98749C19.5906 9.98749 16.9385 11.1852 15.0564 13.0673C13.1315 14.9922 11.9766 17.6016 11.9766 20.5103C11.9766 23.4191 13.1743 26.0711 15.0564 27.9533C16.9813 29.8782 19.5906 31.0331 22.4994 31.0331C25.4081 31.0331 28.0602 29.8354 29.9423 27.9533C31.8673 26.0284 33.0222 23.4191 33.0222 20.5103C33.0222 17.6016 31.8245 14.9495 29.9423 13.0673C28.0602 11.1852 25.4081 9.98749 22.4994 9.98749ZM28.3169 26.3706C26.8197 27.825 24.7665 28.766 22.4994 28.766C20.2323 28.766 18.179 27.825 16.6819 26.3706C15.1847 24.8734 14.2864 22.8202 14.2864 20.5531C14.2864 18.286 15.2275 16.2327 16.6819 14.7356C18.179 13.2384 20.2323 12.3402 22.4994 12.3402C24.7665 12.3402 26.8197 13.2812 28.3169 14.7356C29.814 16.2327 30.7123 18.286 30.7123 20.5531C30.7551 22.8202 29.814 24.8734 28.3169 26.3706Z" fill="#FFFDFD"/>
<path d="M37.7288 14.1367C38.8864 14.1367 39.8248 13.1983 39.8248 12.0407C39.8248 10.8831 38.8864 9.9447 37.7288 9.9447C36.5712 9.9447 35.6328 10.8831 35.6328 12.0407C35.6328 13.1983 36.5712 14.1367 37.7288 14.1367Z" fill="#FFFDFD"/>
</svg>
