<svg width="69" height="69" viewBox="0 0 69 69" fill="none" xmlns="http://www.w3.org/2000/svg">
<path d="M40.874 7.60726C39.2806 5.26403 37.8746 3.10826 36.5624 1.13994C36.375 0.858755 36.0938 0.577567 35.8126 0.390108C34.6878 -0.359726 33.1882 0.0151909 32.4383 1.13994C31.2199 3.10826 29.8139 5.1703 28.1268 7.60726C20.7222 18.4799 9.66211 34.8825 9.66211 44.2554C9.66211 51.0977 12.474 57.2838 16.973 61.7828C21.472 66.1881 27.6581 69 34.5004 69C41.3426 69 47.5287 66.1881 52.0278 61.6891C56.5268 57.1901 59.3386 51.0039 59.3386 44.1617C59.3386 34.7888 48.2786 18.4799 40.874 7.60726ZM48.6535 58.3148C44.9981 61.9703 40.0304 64.126 34.5004 64.126C28.9703 64.126 24.0027 61.8765 20.3473 58.3148C16.6918 54.6594 14.536 49.6917 14.536 44.1617C14.536 36.2884 25.1274 20.6356 32.1571 10.2317C33.0007 9.0132 33.7505 7.79472 34.5004 6.7637C35.2502 7.79472 36 9.0132 36.8436 10.2317C43.8733 20.7294 54.4647 36.2884 54.4647 44.1617C54.4647 49.6917 52.2152 54.6594 48.6535 58.3148Z" fill="white"/>
<path d="M49.0282 42.4746C47.716 42.3809 46.5913 43.4119 46.4976 44.7241C46.4038 46.7862 45.7477 48.7545 44.7167 50.4416C43.6857 52.1287 42.186 53.6284 40.4051 54.5657C39.2804 55.2218 38.8117 56.7215 39.4679 57.8462C40.2177 59.1584 41.7174 59.5333 42.8421 58.8772C45.3728 57.4713 47.4348 55.4093 48.8408 53.066C50.3405 50.7228 51.184 47.9109 51.2777 45.0053C51.3715 43.6931 50.3404 42.5683 49.0282 42.4746Z" fill="white"/>
</svg>
